<svg width="118" height="143" viewBox="0 0 118 143" fill="none" xmlns="http://www.w3.org/2000/svg">
<g clip-path="url(#clip0_680_1155)">
<path fill-rule="evenodd" clip-rule="evenodd" d="M2.38586 93.3231V118.216L20.0629 140.011L115.566 95.2319V70.3378L97.9022 48.5428L2.38586 3.76367V29.0427L20.0629 50.4515L56.5636 67.8741L2.38586 93.3231Z" fill="white"/>
<path fill-rule="evenodd" clip-rule="evenodd" d="M2.3905 28.6565L19.9293 50.5137L57.0659 67.8734L71.3373 60.7843L2.3905 28.6565Z" fill="#BFBFBF"/>
<path fill-rule="evenodd" clip-rule="evenodd" d="M97.7598 47.7649L97.8954 73.2335L115.766 94.7971L115.943 69.6868L97.7598 47.7649Z" fill="#CCCCCC"/>
<path fill-rule="evenodd" clip-rule="evenodd" d="M19.9612 139.38L26.4633 106.992L27.1363 106.679L20.5734 139.376L20.1282 139.582L19.9612 139.38ZM23.3818 138.069L22.7088 138.382L29.2717 105.683L29.9446 105.37L23.3818 138.069ZM18.4027 137.504L17.9119 136.912L23.655 108.301L24.328 107.987L18.4027 137.504ZM26.185 136.762L25.5121 137.075L32.08 104.374L32.7479 104.061L26.185 136.762ZM28.9934 135.455L28.3204 135.768L34.8833 103.065L35.5562 102.752L28.9934 135.455ZM16.3549 135.035L15.8641 134.444L20.8467 109.61L21.5197 109.296L16.3549 135.035ZM31.8017 134.148L31.1287 134.461L37.6916 101.756L38.3646 101.443L31.8017 134.148ZM34.605 132.841L33.9319 133.154L40.4999 100.447L41.1729 100.134L34.605 132.841ZM14.3056 132.567L13.8148 131.976L18.0434 110.919L18.7165 110.605L14.3056 132.567ZM37.4133 131.534L36.7403 131.847L43.3082 99.1388L43.9812 98.8251L37.4133 131.534ZM40.2216 130.227L39.5486 130.54L46.1115 97.8298L46.7844 97.5161L40.2216 130.227ZM12.2568 130.099L11.766 129.508L15.2346 112.228L15.9071 111.914L12.2568 130.099ZM43.0248 128.92L42.3569 129.233L48.9198 96.5208L49.5927 96.2076L43.0248 128.92ZM45.8331 127.613L45.1602 127.925L51.7281 95.2117L52.4011 94.8985L45.8331 127.613ZM10.2075 127.631L9.71666 127.04L12.4273 113.537L13.0998 113.223L10.2075 127.631ZM48.6415 126.306L47.9685 126.618L54.5364 93.9032L55.2094 93.5895L48.6415 126.306ZM51.4498 124.999L50.7768 125.311L57.3447 92.5942L58.0127 92.2805L51.4498 124.999ZM8.15867 125.163L7.66784 124.572L9.62 114.846L10.2925 114.532L8.15867 125.163ZM54.2531 123.691L53.5801 124.004L60.148 91.2852L60.821 90.9719L54.2531 123.691ZM57.0614 122.384L56.3884 122.697L62.9563 89.9761L63.6293 89.6629L57.0614 122.384ZM6.10936 122.695L5.61852 122.104L6.81272 116.154L7.4852 115.841L6.10936 122.695ZM59.8697 121.077L59.1967 121.39L65.7646 88.6676L66.4376 88.3539L59.8697 121.077ZM4.06054 120.228L3.5697 119.636L4.00539 117.463L4.67787 117.15L4.06054 120.228ZM62.6729 119.77L62.005 120.083L68.573 87.3586L69.2459 87.0448L62.6729 119.77ZM65.4813 118.463L64.8083 118.776L71.3762 86.0495L72.0492 85.7358L65.4813 118.463ZM68.2896 117.156L67.6166 117.469L74.1845 84.7405L74.8575 84.4273L68.2896 117.156ZM71.0979 115.849L70.4249 116.162L76.9928 83.432L77.6659 83.1183L71.0979 115.849ZM73.9012 114.542L73.2282 114.855L79.8011 82.1229L80.4742 81.8092L73.9012 114.542ZM76.7095 113.235L76.0365 113.548L82.6095 80.8139L83.2825 80.5007L76.7095 113.235ZM79.5178 111.928L78.8448 112.241L85.4128 79.5049L86.0857 79.1917L79.5178 111.928ZM82.3211 110.621L81.6481 110.934L88.2211 78.1964L88.894 77.8826L82.3211 110.621ZM85.1294 109.314L84.4564 109.627L91.0294 76.8873L91.7024 76.5736L85.1294 109.314ZM87.9377 108.007L87.2647 108.32L93.8377 75.5783L94.5107 75.2646L87.9377 108.007ZM90.741 106.7L90.073 107.013L96.641 74.2693L97.314 73.9561L90.741 106.7ZM99.4999 75.7559L93.5493 105.393L92.8763 105.706L99.0091 75.1664L99.4999 75.7559ZM101.549 78.2151L96.3576 104.086L95.6846 104.399L101.058 77.6261L101.549 78.2151ZM103.599 80.6748L99.1659 102.779L98.4929 103.092L103.108 80.0853L103.599 80.6748ZM105.653 83.1339L101.969 101.472L101.296 101.785L105.162 82.545L105.653 83.1339ZM107.702 85.5936L104.778 100.165L104.105 100.478L107.211 85.0041L107.702 85.5936ZM109.752 88.0528L107.586 98.8575L106.913 99.1707L109.261 87.4638L109.752 88.0528ZM111.806 90.5125L110.389 97.5505L109.721 97.8637L111.315 89.923L111.806 90.5125ZM113.855 92.9717L113.197 96.2435L112.524 96.5567L113.364 92.3827L113.855 92.9717Z" fill="black"/>
<path fill-rule="evenodd" clip-rule="evenodd" d="M1.37467 91.1595L0.000854492 91.8046V119.064L19.3798 142.971L117.954 96.7518V69.4914L99.4093 46.6119L0.000854492 0.00244141V29.9022L18.5499 52.3819L50.9848 67.857L1.37467 91.1595ZM113.76 94.7577L97.6434 74.8758L4.28167 118.651L20.3969 138.533L113.76 94.7577ZM3.58641 27.8969L71.8473 59.8976V62.0618L3.58641 94.1611V116.336L96.7022 72.6772V49.3029L3.58641 5.64387V27.8969ZM99.0906 51.9159V72.8659L114.367 91.712V70.7625L99.0906 51.9159ZM20.8118 49.4871L56.6267 66.5763L68.5279 60.9814L6.17563 31.7511L20.8118 49.4871Z" fill="black"/>
</g>
<defs>
<clipPath id="clip0_680_1155">
<rect width="118" height="142.997" fill="white" transform="translate(0 0.00170898)"/>
</clipPath>
</defs>
</svg>
