<svg width="144" height="32" viewBox="0 0 144 32" fill="none" xmlns="http://www.w3.org/2000/svg">
<path fill-rule="evenodd" clip-rule="evenodd" d="M12.1035 18.7675L1.55176 13.5368V8.92139L16.4483 16.306V21.2291L1.55176 28.6137V23.9983L12.1035 18.7675Z" fill="black"/>
<path fill-rule="evenodd" clip-rule="evenodd" d="M36.5652 9.84448L40.1593 20.7429L43.3927 9.84448H47.7376L42.472 27.6906H38.088L34.3834 16.4599L30.6789 27.6906H26.2949L21.0293 9.84448H25.3741L28.6076 20.7429L32.2017 9.84448H36.5652Z" fill="black"/>
<path fill-rule="evenodd" clip-rule="evenodd" d="M51.7759 19.9982C52.1811 22.4444 54.1511 23.9982 56.5232 23.9982C58.247 23.9982 59.4533 23.0137 60.3043 21.5337L64.9644 22.1829C64.9644 22.1829 63.437 28.3059 56.4828 28.3059C51.4954 28.3059 47.4836 24.0321 47.4836 18.7675C47.4836 13.5029 51.5328 9.229 56.5232 9.229C59.2601 9.229 61.9002 10.6844 63.5305 12.8382C65.7312 15.7428 64.9394 19.9982 64.9394 19.9982H51.7759ZM60.9246 16.6136H52.1219C52.1219 16.6136 52.7235 13.229 56.5232 13.229C60.323 13.229 60.9246 16.6136 60.9246 16.6136Z" fill="black"/>
<path fill-rule="evenodd" clip-rule="evenodd" d="M94.1591 9.229C99.299 9.229 103.469 13.5059 103.469 18.7675C103.469 24.0321 99.299 28.3059 94.1591 28.3059C89.0223 28.3059 84.8488 24.0321 84.8488 18.7675C84.8488 13.5059 89.0223 9.229 94.1591 9.229ZM94.1591 13.3829C96.9939 13.3829 99.2958 15.7982 99.2958 18.7675C99.2958 21.7398 96.9939 24.1521 94.1591 24.1521C91.3242 24.1521 89.0223 21.7398 89.0223 18.7675C89.0223 15.7982 91.3242 13.3829 94.1591 13.3829Z" fill="black"/>
<path fill-rule="evenodd" clip-rule="evenodd" d="M83.9194 22.272C82.6019 25.8043 79.3457 28.3059 75.5433 28.3059C70.5765 28.3059 66.54 24.0321 66.54 18.7675C66.54 13.5059 70.5765 9.229 75.5433 9.229C79.3457 9.229 82.6019 11.7335 83.9194 15.2658L79.7389 15.8844C78.8565 14.3797 77.308 13.3829 75.5433 13.3829C72.8033 13.3829 70.5765 15.7982 70.5765 18.7675C70.5765 21.7398 72.8033 24.1521 75.5433 24.1521C77.308 24.1521 78.8565 23.1551 79.7389 21.6536L83.9194 22.272Z" fill="black"/>
<path fill-rule="evenodd" clip-rule="evenodd" d="M119.3 10.5984V2.76758H123.645V27.9983H119.3V26.9368C117.85 27.8075 116.15 28.306 114.334 28.306C109.024 28.306 104.714 24.0322 104.714 18.7676C104.714 13.503 109.024 9.22912 114.334 9.22912C116.15 9.22912 117.85 9.72764 119.3 10.5984ZM114.334 13.5368C117.245 13.5368 119.61 15.8814 119.61 18.7676C119.61 21.6537 117.245 23.9983 114.334 23.9983C111.423 23.9983 109.058 21.6537 109.058 18.7676C109.058 15.8814 111.423 13.5368 114.334 13.5368Z" fill="black"/>
<path fill-rule="evenodd" clip-rule="evenodd" d="M129.488 19.9982C129.894 22.4444 131.864 23.9982 134.236 23.9982C135.96 23.9982 137.166 23.0137 138.017 21.5337L142.677 22.1829C142.677 22.1829 141.15 28.3059 134.195 28.3059C129.208 28.3059 125.196 24.0321 125.196 18.7675C125.196 13.5029 129.245 9.229 134.236 9.229C136.973 9.229 139.613 10.6844 141.243 12.8382C143.444 15.7428 142.652 19.9982 142.652 19.9982H129.488ZM138.637 16.6136H129.834C129.834 16.6136 130.436 13.229 134.236 13.229C138.036 13.229 138.637 16.6136 138.637 16.6136Z" fill="black"/>
</svg>
